# xmcd CD database file
#
# Track frame offsets:
#	150
#	12135
#	24135
#	32272
#	45107
#	59362
#	71182
#	80315
#	94402
#	104902
#	115940
#	129455
#	144337
#	157842
#	168870
#	179720
#	191552
#	207302
#	217940
#	228447
#	238920
#	253412
#	265292
#	277682
#	288525
#	299290
#	312790
#
# Disc length: 4354 seconds
#
# Revision: 2
# Processed by: cddbd v1.5.2PL0 Copyright (c) Steve Scherf et al.
# Submitted via: CDex 1.51
#
DISCID=8111001b
DTITLE=The Mills Brothers - Vol. 085 - Vol. 1- 1931-1934
DYEAR=1992
DGENRE=Jazz
TTITLE0=Sweet Georgia Brown
TTITLE1=Some Of These Days
TTITLE2=Tiger Rag
TTITLE3=I've Found A New Baby
TTITLE4=Doin' The New Low Down
TTITLE5=Chinatown, My Chinatown
TTITLE6=Bugle Call Rag
TTITLE7=Diga Diga Doo
TTITLE8=It Don't Mean A Thing (If It Ain't Got That Swing)
TTITLE9=The Old Man Of The Mountain
TTITLE10=Dinah
TTITLE11=Shine
TTITLE12=My Honey's Lovin' Arms
TTITLE13=Nobody's Sweetheart
TTITLE14=I Heard
TTITLE15=Life Is Just A Bowl Of Cherries
TTITLE16=Rockin' Chair
TTITLE17=St. Louis Blues
TTITLE18=Out For No Good
TTITLE19=Coney Island Washboard
TTITLE20=Dirt Dishin' Daisy
TTITLE21=Git Along
TTITLE22=I Can't Give You Anything But Love
TTITLE23=Fiddlin' Joe
TTITLE24=Nagasaki
TTITLE25=My Gal Sal
TTITLE26=Money In My Pockets
EXTD=YEAR: 1992
EXTT0=
EXTT1=
EXTT2=
EXTT3=
EXTT4=
EXTT5=
EXTT6=
EXTT7=
EXTT8=
EXTT9=
EXTT10=
EXTT11=
EXTT12=
EXTT13=
EXTT14=
EXTT15=
EXTT16=
EXTT17=
EXTT18=
EXTT19=
EXTT20=
EXTT21=
EXTT22=
EXTT23=
EXTT24=
EXTT25=
EXTT26=
PLAYORDER=
